<svg xmlns="http://www.w3.org/2000/svg" width="980" height="474" viewBox="0 0 980 474" font-family="system-ui,-apple-system,Segoe UI,Helvetica,Arial,sans-serif"><rect width="980" height="474" fill="#f9f7f4"/><defs><marker id="a" markerWidth="9" markerHeight="9" refX="7" refY="3" orient="auto"><path d="M0,0 L7,3 L0,6 Z" fill="#7a756e"/></marker><marker id="ag" markerWidth="10" markerHeight="10" refX="7" refY="3" orient="auto"><path d="M0,0 L7,3 L0,6 Z" fill="#2d7a4a"/></marker><marker id="ar" markerWidth="10" markerHeight="10" refX="7" refY="3" orient="auto"><path d="M0,0 L7,3 L0,6 Z" fill="#b84040"/></marker><marker id="aa" markerWidth="9" markerHeight="9" refX="6" refY="3" orient="auto"><path d="M0,0 L7,3 L0,6 Z" fill="#c17f3a"/></marker></defs><text x="40.0" y="30.0" font-family="system-ui,-apple-system,Segoe UI,Helvetica,Arial,sans-serif" font-size="11" font-weight="700" fill="#c17f3a" text-anchor="start" letter-spacing="0.14em">EVOLVING AGENT HARNESSES</text><text x="40.0" y="60.0" font-family="system-ui,-apple-system,Segoe UI,Helvetica,Arial,sans-serif" font-size="22" font-weight="800" fill="#1a1814" text-anchor="start">Three ways to spend 8 Haiku calls — only the evolved harness beats the frontier</text><rect x="40.0" y="86.0" width="260.0" height="332.0" rx="14" fill="#ffffff" stroke="#e8e3dc" stroke-width="1"/><rect x="42.0" y="104.0" width="64.0" height="24.0" rx="12" fill="#f5ead8"/><text x="74.0" y="120.0" font-family="system-ui,-apple-system,Segoe UI,Helvetica,Arial,sans-serif" font-size="10" font-weight="700" fill="#c17f3a" text-anchor="middle">NAIVE</text><text x="188.0" y="121.0" font-family="system-ui,-apple-system,Segoe UI,Helvetica,Arial,sans-serif" font-size="16" font-weight="700" fill="#1a1814" text-anchor="middle">1 · refine-8</text><rect x="44.5" y="142.0" width="27.0" height="33.0" rx="6" fill="#2d5fa6"/><text x="58.0" y="163.5" font-family="system-ui,-apple-system,Segoe UI,Helvetica,Arial,sans-serif" font-size="14" font-weight="800" fill="#fff" text-anchor="middle">D</text><line x1="71.5" y1="158.5" x2="76.5" y2="158.5" stroke="#cdc6bc" stroke-width="1.5"/><rect x="76.5" y="142.0" width="27.0" height="33.0" rx="6" fill="#c17f3a"/><text x="90.0" y="163.5" font-family="system-ui,-apple-system,Segoe UI,Helvetica,Arial,sans-serif" font-size="14" font-weight="800" fill="#fff" text-anchor="middle">F</text><line x1="103.5" y1="158.5" x2="108.5" y2="158.5" stroke="#cdc6bc" stroke-width="1.5"/><rect x="108.5" y="142.0" width="27.0" height="33.0" rx="6" fill="#c17f3a"/><text x="122.0" y="163.5" font-family="system-ui,-apple-system,Segoe UI,Helvetica,Arial,sans-serif" font-size="14" font-weight="800" fill="#fff" text-anchor="middle">F</text><line x1="135.5" y1="158.5" x2="140.5" y2="158.5" stroke="#cdc6bc" stroke-width="1.5"/><rect x="140.5" y="142.0" width="27.0" height="33.0" rx="6" fill="#c17f3a"/><text x="154.0" y="163.5" font-family="system-ui,-apple-system,Segoe UI,Helvetica,Arial,sans-serif" font-size="14" font-weight="800" fill="#fff" text-anchor="middle">F</text><line x1="167.5" y1="158.5" x2="172.5" y2="158.5" stroke="#cdc6bc" stroke-width="1.5"/><rect x="172.5" y="142.0" width="27.0" height="33.0" rx="6" fill="#c17f3a"/><text x="186.0" y="163.5" font-family="system-ui,-apple-system,Segoe UI,Helvetica,Arial,sans-serif" font-size="14" font-weight="800" fill="#fff" text-anchor="middle">F</text><line x1="199.5" y1="158.5" x2="204.5" y2="158.5" stroke="#cdc6bc" stroke-width="1.5"/><rect x="204.5" y="142.0" width="27.0" height="33.0" rx="6" fill="#c17f3a"/><text x="218.0" y="163.5" font-family="system-ui,-apple-system,Segoe UI,Helvetica,Arial,sans-serif" font-size="14" font-weight="800" fill="#fff" text-anchor="middle">F</text><line x1="231.5" y1="158.5" x2="236.5" y2="158.5" stroke="#cdc6bc" stroke-width="1.5"/><rect x="236.5" y="142.0" width="27.0" height="33.0" rx="6" fill="#c17f3a"/><text x="250.0" y="163.5" font-family="system-ui,-apple-system,Segoe UI,Helvetica,Arial,sans-serif" font-size="14" font-weight="800" fill="#fff" text-anchor="middle">F</text><line x1="263.5" y1="158.5" x2="268.5" y2="158.5" stroke="#cdc6bc" stroke-width="1.5"/><rect x="268.5" y="142.0" width="27.0" height="33.0" rx="6" fill="#c17f3a"/><text x="282.0" y="163.5" font-family="system-ui,-apple-system,Segoe UI,Helvetica,Arial,sans-serif" font-size="14" font-weight="800" fill="#fff" text-anchor="middle">F</text><text x="170.0" y="210.0" font-family="system-ui,-apple-system,Segoe UI,Helvetica,Arial,sans-serif" font-size="12" font-weight="400" fill="#4a4640" text-anchor="middle">one draft, then 7 blind fixes</text><rect x="62.0" y="238.0" width="216.0" height="30.0" rx="6" fill="#ece7df"/><rect x="62.0" y="238.0" width="70.5" height="30.0" rx="6" fill="#7a756e"/><text x="123.5" y="258.0" font-family="system-ui,-apple-system,Segoe UI,Helvetica,Arial,sans-serif" font-size="15" font-weight="800" fill="#fff" text-anchor="end">0.27</text><line x1="62.0" y1="268.0" x2="62.0" y2="272.0" stroke="#cdc6bc" stroke-width="1"/><text x="62.0" y="284.0" font-family="system-ui,-apple-system,Segoe UI,Helvetica,Arial,sans-serif" font-size="9.5" font-weight="400" fill="#7a756e" text-anchor="middle">0.0</text><line x1="166.4" y1="268.0" x2="166.4" y2="272.0" stroke="#cdc6bc" stroke-width="1"/><text x="166.4" y="284.0" font-family="system-ui,-apple-system,Segoe UI,Helvetica,Arial,sans-serif" font-size="9.5" font-weight="400" fill="#7a756e" text-anchor="middle">0.4</text><line x1="270.8" y1="268.0" x2="270.8" y2="272.0" stroke="#cdc6bc" stroke-width="1"/><text x="270.8" y="284.0" font-family="system-ui,-apple-system,Segoe UI,Helvetica,Arial,sans-serif" font-size="9.5" font-weight="400" fill="#7a756e" text-anchor="middle">0.8</text><text x="170.0" y="314.0" font-family="system-ui,-apple-system,Segoe UI,Helvetica,Arial,sans-serif" font-size="12.5" font-weight="400" fill="#7a756e" text-anchor="middle">≈ a single Haiku call</text><rect x="95.0" y="354.0" width="150.0" height="24.0" rx="12" fill="#f1ece4"/><text x="170.0" y="370.0" font-family="system-ui,-apple-system,Segoe UI,Helvetica,Arial,sans-serif" font-size="11" font-weight="700" fill="#7a756e" text-anchor="middle">budget = 8 Haiku calls</text><rect x="360.0" y="86.0" width="260.0" height="332.0" rx="14" fill="#ffffff" stroke="#e8e3dc" stroke-width="1"/><rect x="362.0" y="104.0" width="64.0" height="24.0" rx="12" fill="#f5ead8"/><text x="394.0" y="120.0" font-family="system-ui,-apple-system,Segoe UI,Helvetica,Arial,sans-serif" font-size="10" font-weight="700" fill="#c17f3a" text-anchor="middle">NAIVE</text><text x="508.0" y="121.0" font-family="system-ui,-apple-system,Segoe UI,Helvetica,Arial,sans-serif" font-size="16" font-weight="700" fill="#1a1814" text-anchor="middle">2 · best-of-8</text><rect x="364.5" y="142.0" width="27.0" height="33.0" rx="6" fill="#2d5fa6"/><text x="378.0" y="163.5" font-family="system-ui,-apple-system,Segoe UI,Helvetica,Arial,sans-serif" font-size="14" font-weight="800" fill="#fff" text-anchor="middle">D</text><line x1="391.5" y1="158.5" x2="396.5" y2="158.5" stroke="#cdc6bc" stroke-width="1.5"/><rect x="396.5" y="142.0" width="27.0" height="33.0" rx="6" fill="#2d5fa6"/><text x="410.0" y="163.5" font-family="system-ui,-apple-system,Segoe UI,Helvetica,Arial,sans-serif" font-size="14" font-weight="800" fill="#fff" text-anchor="middle">D</text><line x1="423.5" y1="158.5" x2="428.5" y2="158.5" stroke="#cdc6bc" stroke-width="1.5"/><rect x="428.5" y="142.0" width="27.0" height="33.0" rx="6" fill="#2d5fa6"/><text x="442.0" y="163.5" font-family="system-ui,-apple-system,Segoe UI,Helvetica,Arial,sans-serif" font-size="14" font-weight="800" fill="#fff" text-anchor="middle">D</text><line x1="455.5" y1="158.5" x2="460.5" y2="158.5" stroke="#cdc6bc" stroke-width="1.5"/><rect x="460.5" y="142.0" width="27.0" height="33.0" rx="6" fill="#2d5fa6"/><text x="474.0" y="163.5" font-family="system-ui,-apple-system,Segoe UI,Helvetica,Arial,sans-serif" font-size="14" font-weight="800" fill="#fff" text-anchor="middle">D</text><line x1="487.5" y1="158.5" x2="492.5" y2="158.5" stroke="#cdc6bc" stroke-width="1.5"/><rect x="492.5" y="142.0" width="27.0" height="33.0" rx="6" fill="#2d5fa6"/><text x="506.0" y="163.5" font-family="system-ui,-apple-system,Segoe UI,Helvetica,Arial,sans-serif" font-size="14" font-weight="800" fill="#fff" text-anchor="middle">D</text><line x1="519.5" y1="158.5" x2="524.5" y2="158.5" stroke="#cdc6bc" stroke-width="1.5"/><rect x="524.5" y="142.0" width="27.0" height="33.0" rx="6" fill="#2d5fa6"/><text x="538.0" y="163.5" font-family="system-ui,-apple-system,Segoe UI,Helvetica,Arial,sans-serif" font-size="14" font-weight="800" fill="#fff" text-anchor="middle">D</text><line x1="551.5" y1="158.5" x2="556.5" y2="158.5" stroke="#cdc6bc" stroke-width="1.5"/><rect x="556.5" y="142.0" width="27.0" height="33.0" rx="6" fill="#2d5fa6"/><text x="570.0" y="163.5" font-family="system-ui,-apple-system,Segoe UI,Helvetica,Arial,sans-serif" font-size="14" font-weight="800" fill="#fff" text-anchor="middle">D</text><line x1="583.5" y1="158.5" x2="588.5" y2="158.5" stroke="#cdc6bc" stroke-width="1.5"/><rect x="588.5" y="142.0" width="27.0" height="33.0" rx="6" fill="#2d5fa6"/><text x="602.0" y="163.5" font-family="system-ui,-apple-system,Segoe UI,Helvetica,Arial,sans-serif" font-size="14" font-weight="800" fill="#fff" text-anchor="middle">D</text><text x="490.0" y="210.0" font-family="system-ui,-apple-system,Segoe UI,Helvetica,Arial,sans-serif" font-size="12" font-weight="400" fill="#4a4640" text-anchor="middle">8 parallel drafts, keep the best</text><rect x="382.0" y="238.0" width="216.0" height="30.0" rx="6" fill="#ece7df"/><rect x="382.0" y="238.0" width="117.5" height="30.0" rx="6" fill="#4a4640"/><text x="490.4" y="258.0" font-family="system-ui,-apple-system,Segoe UI,Helvetica,Arial,sans-serif" font-size="15" font-weight="800" fill="#fff" text-anchor="end">0.45</text><line x1="382.0" y1="268.0" x2="382.0" y2="272.0" stroke="#cdc6bc" stroke-width="1"/><text x="382.0" y="284.0" font-family="system-ui,-apple-system,Segoe UI,Helvetica,Arial,sans-serif" font-size="9.5" font-weight="400" fill="#7a756e" text-anchor="middle">0.0</text><line x1="486.4" y1="268.0" x2="486.4" y2="272.0" stroke="#cdc6bc" stroke-width="1"/><text x="486.4" y="284.0" font-family="system-ui,-apple-system,Segoe UI,Helvetica,Arial,sans-serif" font-size="9.5" font-weight="400" fill="#7a756e" text-anchor="middle">0.4</text><line x1="590.8" y1="268.0" x2="590.8" y2="272.0" stroke="#cdc6bc" stroke-width="1"/><text x="590.8" y="284.0" font-family="system-ui,-apple-system,Segoe UI,Helvetica,Arial,sans-serif" font-size="9.5" font-weight="400" fill="#7a756e" text-anchor="middle">0.8</text><text x="490.0" y="314.0" font-family="system-ui,-apple-system,Segoe UI,Helvetica,Arial,sans-serif" font-size="12.5" font-weight="400" fill="#4a4640" text-anchor="middle">ties single-shot Sonnet</text><rect x="415.0" y="354.0" width="150.0" height="24.0" rx="12" fill="#f1ece4"/><text x="490.0" y="370.0" font-family="system-ui,-apple-system,Segoe UI,Helvetica,Arial,sans-serif" font-size="11" font-weight="700" fill="#7a756e" text-anchor="middle">budget = 8 Haiku calls</text><rect x="680.0" y="86.0" width="260.0" height="332.0" rx="14" fill="#e4f2ea" stroke="#2d7a4a" stroke-width="2"/><rect x="682.0" y="104.0" width="64.0" height="24.0" rx="12" fill="#e4f2ea"/><text x="714.0" y="120.0" font-family="system-ui,-apple-system,Segoe UI,Helvetica,Arial,sans-serif" font-size="10" font-weight="700" fill="#2d7a4a" text-anchor="middle">EVOLVED</text><text x="828.0" y="121.0" font-family="system-ui,-apple-system,Segoe UI,Helvetica,Arial,sans-serif" font-size="16" font-weight="700" fill="#2d7a4a" text-anchor="middle">3 · diversify → refine</text><rect x="674.5" y="142.0" width="27.0" height="33.0" rx="6" fill="#2d5fa6"/><text x="688.0" y="163.5" font-family="system-ui,-apple-system,Segoe UI,Helvetica,Arial,sans-serif" font-size="14" font-weight="800" fill="#fff" text-anchor="middle">D</text><line x1="701.5" y1="158.5" x2="706.5" y2="158.5" stroke="#cdc6bc" stroke-width="1.5"/><rect x="706.5" y="142.0" width="27.0" height="33.0" rx="6" fill="#2d5fa6"/><text x="720.0" y="163.5" font-family="system-ui,-apple-system,Segoe UI,Helvetica,Arial,sans-serif" font-size="14" font-weight="800" fill="#fff" text-anchor="middle">D</text><line x1="733.5" y1="158.5" x2="738.5" y2="158.5" stroke="#cdc6bc" stroke-width="1.5"/><rect x="738.5" y="142.0" width="27.0" height="33.0" rx="6" fill="#2d5fa6"/><text x="752.0" y="163.5" font-family="system-ui,-apple-system,Segoe UI,Helvetica,Arial,sans-serif" font-size="14" font-weight="800" fill="#fff" text-anchor="middle">D</text><line x1="765.5" y1="158.5" x2="770.5" y2="158.5" stroke="#cdc6bc" stroke-width="1.5"/><rect x="770.5" y="142.0" width="27.0" height="33.0" rx="6" fill="#2d5fa6"/><text x="784.0" y="163.5" font-family="system-ui,-apple-system,Segoe UI,Helvetica,Arial,sans-serif" font-size="14" font-weight="800" fill="#fff" text-anchor="middle">D</text><path d="M803.5,158.5 l13,0" stroke="#7a756e" stroke-width="2" marker-end="url(#a)"/><rect x="822.5" y="142.0" width="27.0" height="33.0" rx="6" fill="#c17f3a"/><text x="836.0" y="163.5" font-family="system-ui,-apple-system,Segoe UI,Helvetica,Arial,sans-serif" font-size="14" font-weight="800" fill="#fff" text-anchor="middle">F</text><line x1="849.5" y1="158.5" x2="854.5" y2="158.5" stroke="#cdc6bc" stroke-width="1.5"/><rect x="854.5" y="142.0" width="27.0" height="33.0" rx="6" fill="#c17f3a"/><text x="868.0" y="163.5" font-family="system-ui,-apple-system,Segoe UI,Helvetica,Arial,sans-serif" font-size="14" font-weight="800" fill="#fff" text-anchor="middle">F</text><line x1="881.5" y1="158.5" x2="886.5" y2="158.5" stroke="#cdc6bc" stroke-width="1.5"/><rect x="886.5" y="142.0" width="27.0" height="33.0" rx="6" fill="#c17f3a"/><text x="900.0" y="163.5" font-family="system-ui,-apple-system,Segoe UI,Helvetica,Arial,sans-serif" font-size="14" font-weight="800" fill="#fff" text-anchor="middle">F</text><line x1="913.5" y1="158.5" x2="918.5" y2="158.5" stroke="#cdc6bc" stroke-width="1.5"/><rect x="918.5" y="142.0" width="27.0" height="33.0" rx="6" fill="#c17f3a"/><text x="932.0" y="163.5" font-family="system-ui,-apple-system,Segoe UI,Helvetica,Arial,sans-serif" font-size="14" font-weight="800" fill="#fff" text-anchor="middle">F</text><text x="810.0" y="210.0" font-family="system-ui,-apple-system,Segoe UI,Helvetica,Arial,sans-serif" font-size="12" font-weight="400" fill="#4a4640" text-anchor="middle">4 drafts for diversity, then 4 targeted fixes</text><rect x="702.0" y="238.0" width="216.0" height="30.0" rx="6" fill="#ece7df"/><rect x="702.0" y="238.0" width="187.9" height="30.0" rx="6" fill="#2d7a4a"/><text x="880.9" y="258.0" font-family="system-ui,-apple-system,Segoe UI,Helvetica,Arial,sans-serif" font-size="15" font-weight="800" fill="#fff" text-anchor="end">0.72</text><line x1="702.0" y1="268.0" x2="702.0" y2="272.0" stroke="#cdc6bc" stroke-width="1"/><text x="702.0" y="284.0" font-family="system-ui,-apple-system,Segoe UI,Helvetica,Arial,sans-serif" font-size="9.5" font-weight="400" fill="#7a756e" text-anchor="middle">0.0</text><line x1="806.4" y1="268.0" x2="806.4" y2="272.0" stroke="#cdc6bc" stroke-width="1"/><text x="806.4" y="284.0" font-family="system-ui,-apple-system,Segoe UI,Helvetica,Arial,sans-serif" font-size="9.5" font-weight="400" fill="#7a756e" text-anchor="middle">0.4</text><line x1="910.8" y1="268.0" x2="910.8" y2="272.0" stroke="#cdc6bc" stroke-width="1"/><text x="910.8" y="284.0" font-family="system-ui,-apple-system,Segoe UI,Helvetica,Arial,sans-serif" font-size="9.5" font-weight="400" fill="#7a756e" text-anchor="middle">0.8</text><line x1="817.4" y1="231.0" x2="817.4" y2="270.0" stroke="#b84040" stroke-width="1.5" stroke-dasharray="3,2"/><line x1="838.2" y1="231.0" x2="838.2" y2="270.0" stroke="#b84040" stroke-width="1.5" stroke-dasharray="3,2"/><text x="810.0" y="226.0" font-family="system-ui,-apple-system,Segoe UI,Helvetica,Arial,sans-serif" font-size="10" font-weight="700" fill="#b84040" text-anchor="middle">single-shot Sonnet 0.44 · Opus 0.52</text><text x="810.0" y="314.0" font-family="system-ui,-apple-system,Segoe UI,Helvetica,Arial,sans-serif" font-size="12.5" font-weight="700" fill="#2d7a4a" text-anchor="middle">beats Opus +0.20 · Sonnet +0.28</text><rect x="735.0" y="354.0" width="150.0" height="24.0" rx="12" fill="#f1ece4"/><text x="810.0" y="370.0" font-family="system-ui,-apple-system,Segoe UI,Helvetica,Arial,sans-serif" font-size="11" font-weight="700" fill="#7a756e" text-anchor="middle">budget = 8 Haiku calls</text><rect x="381.0" y="440.0" width="15.0" height="15.0" rx="4" fill="#2d5fa6"/><text x="403.0" y="452.0" font-family="system-ui,-apple-system,Segoe UI,Helvetica,Arial,sans-serif" font-size="12.5" font-weight="400" fill="#4a4640" text-anchor="start">draft (D)</text><rect x="519.0" y="440.0" width="15.0" height="15.0" rx="4" fill="#c17f3a"/><text x="541.0" y="452.0" font-family="system-ui,-apple-system,Segoe UI,Helvetica,Arial,sans-serif" font-size="12.5" font-weight="400" fill="#4a4640" text-anchor="start">fix (F)</text><text x="490.0" y="471.0" font-family="system-ui,-apple-system,Segoe UI,Helvetica,Arial,sans-serif" font-size="11" font-weight="400" fill="#7a756e" text-anchor="middle">fixed model = Claude Haiku   ·   win-rate on a BattleSnake ladder   ·   harness evolved by Sonnet</text></svg>